<?xml version="1.0" encoding="iso-8859-1"?>
<!-- Generator: Adobe Illustrator 19.0.0, SVG Export Plug-In . SVG Version: 6.00 Build 0)  -->
<svg version="1.1" id="Capa_1" xmlns="http://www.w3.org/2000/svg" xmlns:xlink="http://www.w3.org/1999/xlink" x="0px" y="0px"
	 viewBox="0 0 439.917 439.917" style="enable-background:new 0 0 439.917 439.917;" xml:space="preserve">
<g>
	<g>
		<path style="fill:#00EFD1;" d="M439.917,82.039l-25.078,105.012c-4.61,19.62-21.212,34.12-41.273,36.049l-221.518,22.465h-4.18
			L91.966,77.86l2.09-1.045L439.917,82.039z"/>
		<g>
			<circle style="fill:#00ACEA;" cx="342.219" cy="396.553" r="36.571"/>
			<circle style="fill:#00ACEA;" cx="143.688" cy="396.553" r="36.571"/>
		</g>
	</g>
	<path style="fill:#00ACEA;" d="M378.79,321.843H175.558c-15.637,0.146-30.323-7.491-39.184-20.376
		c-8.766-13.132-10.524-29.732-4.702-44.408l5.224-11.494L70.545,45.468c-3.624-10.732-13.751-17.905-25.078-17.763H10.464
		c-5.771,0-10.449-4.678-10.449-10.449C-0.282,11.781,3.916,7.103,9.39,6.806c0.358-0.019,0.716-0.019,1.074,0h35.004
		C65.803,6.46,84.003,19.37,90.398,38.676l67.396,203.755c0.629,2.43,0.446,4.999-0.522,7.314l-6.269,15.151
		c-3.114,8.131-2.143,17.262,2.612,24.555c4.981,7.205,13.184,11.502,21.943,11.494H378.79c5.771,0,10.449,4.678,10.449,10.449
		c0.297,5.474-3.901,10.152-9.375,10.449C379.507,321.863,379.148,321.863,378.79,321.843z"/>
</g>
<g>
</g>
<g>
</g>
<g>
</g>
<g>
</g>
<g>
</g>
<g>
</g>
<g>
</g>
<g>
</g>
<g>
</g>
<g>
</g>
<g>
</g>
<g>
</g>
<g>
</g>
<g>
</g>
<g>
</g>
</svg>
